<?xml version="1.0" encoding="utf-8"?>
<!-- Generator: Adobe Illustrator 23.1.0, SVG Export Plug-In . SVG Version: 6.00 Build 0)  -->
<svg version="1.1" id="Слой_1" xmlns="http://www.w3.org/2000/svg" xmlns:xlink="http://www.w3.org/1999/xlink" x="0px" y="0px"
	 viewBox="0 0 176.29 175.28" style="enable-background:new 0 0 176.29 175.28;" xml:space="preserve">
<style type="text/css">
	.st0{fill:#6CA49C;}
</style>
<g>
	<path class="st0" d="M118.59,22.3l0.03,0c7.76-0.37,16.57,3.53,23.53,10.43c6.96,6.89,10.94,15.66,10.65,23.44l2,97.84l-98.31-0.57
		c-7.78,0.37-16.58-3.52-23.54-10.41c-6.97-6.9-10.95-15.67-10.66-23.46c0.56-14.75,13.5-27.84,28.26-28.56l0.04,0l17.85-0.85
		l20.42-0.97l0.78-20.43l0.68-17.89C90.88,36.1,103.83,23.02,118.59,22.3 M117.5,0.05C91.19,1.34,69.06,23.7,68.06,50.02
		l-0.68,17.89l-17.87,0.85c-0.02,0-0.03,0-0.04,0c-26.3,1.29-48.43,23.65-49.43,49.97c-1.11,29.62,27.92,58.37,57.53,56.95
		l118.73-0.41L175.06,57c1.12-29.62-27.91-58.36-57.53-56.96C117.52,0.05,117.52,0.05,117.5,0.05L117.5,0.05z"/>
</g>
</svg>
