<?xml version="1.0" encoding="utf-8"?>
<!-- Generator: Adobe Illustrator 23.1.0, SVG Export Plug-In . SVG Version: 6.00 Build 0)  -->
<svg version="1.1" id="Слой_1" xmlns="http://www.w3.org/2000/svg" xmlns:xlink="http://www.w3.org/1999/xlink" x="0px" y="0px"
	 viewBox="0 0 151.77 150.2" style="enable-background:new 0 0 151.77 150.2;" xml:space="preserve">
<style type="text/css">
	.st0{fill:#6CA49C;}
</style>
<path class="st0" d="M151.74,102.22c-0.86-22.66-19.91-41.91-42.56-43.02c-0.01,0-0.02,0-0.04,0l-15.39-0.73l-0.59-15.4
	C92.31,20.4,73.26,1.15,50.6,0.04c-0.01,0-0.02,0-0.03,0c-3.34-0.16-6.67,0.13-9.94,0.81c-3.83,0.99-15.1,5.47-20.42,9.85
	C8.49,20.08,0.5,34.45,1.05,49.08L0,150.2l102.22,1.06C127.7,152.48,152.7,127.73,151.74,102.22z M123.4,123.14
	c-6,5.93-13.57,9.29-20.27,8.97l-84.64,0.49l1.72-84.24c-0.23-6.14,2.63-12.98,7.73-18.66c4.2-4.59,11.66-9.86,20.97-10.51
	c0.25,0,0.49,0,0.74,0.01l0.02,0c12.71,0.62,23.86,11.89,24.35,24.6l0.59,15.4l0.67,17.59l17.58,0.84l15.36,0.73l0.04,0
	c12.71,0.62,23.85,11.88,24.33,24.59C132.83,109.65,129.4,117.2,123.4,123.14z"/>
</svg>
